# xmcd CD database file
#
# Track frame offsets:
#	150
#	16949
#	36173
#	52455
#	69944
#	90132
#	105902
#	122540
#	136382
#	151029
#	163696
#	182443
#
# Disc length: 2661 seconds
#
# Revision: 0
# Processed by: cddbd v1.5.1PL0 Copyright (c) Steve Scherf et al.
# Submitted via: CDex 1.40Release
#
DISCID=880a630c
DTITLE=Eli Young Band - Level
DYEAR=2005
DGENRE=Country
TTITLE0=Small Town Kid
TTITLE1=When It Rains
TTITLE2=So Close Now
TTITLE3=That's the Way
TTITLE4=Level
TTITLE5=Oklahoma Girl
TTITLE6=Everything is You
TTITLE7=Girl in Red
TTITLE8=Bring it on Home
TTITLE9=I Call the Tune
TTITLE10=Highways and Broken Hearts
TTITLE11=Bottom Line
EXTD=YEAR: 2005 ID3G: 2
EXTT0=
EXTT1=
EXTT2=
EXTT3=
EXTT4=
EXTT5=
EXTT6=
EXTT7=
EXTT8=
EXTT9=
EXTT10=
EXTT11=
PLAYORDER=
